<svg width="60" height="57" viewBox="0 0 60 57" xmlns="http://www.w3.org/2000/svg">
  <g fill-rule="evenodd">
    <path d="M0 28.5C0 25.4647 2.5416 23 5.6535 23h37.6848C46.4583 23 49 25.4647 49 28.5S46.4584 34 43.3383 34H5.6535C2.5415 34 0 31.5353 0 28.5"/>
    <path d="M26 5.6663c0-1.445.5553-2.8985 1.6578-4.0007 2.2214-2.2208 5.8066-2.2208 8.0197 0L58.34 24.3226c2.2133 2.2128 2.2133 5.797 0 8.018-2.213 2.2126-5.7982 2.2126-8.0114 0L27.6578 9.675C26.5553 8.5648 26 7.1196 26 5.6662"/>
    <path d="M26 51.33c0-1.4453.5472-2.899 1.6578-4.0013l22.6708-22.669c2.2132-2.213 5.7983-2.213 8.0115 0 2.2133 2.213 2.2133 5.798 0 8.011l-22.6625 22.669c-2.2213 2.2138-5.7983 2.2138-8.0197 0C26.5472 54.229 26 52.7836 26 51.33"/>
  </g>
</svg>
