<svg width="25" height="25" viewBox="0 0 25 25" xmlns="http://www.w3.org/2000/svg">
  <g fill="none" fill-rule="evenodd">
    <path d="M24.4875 12.4576c0 6.645-5.387 12.03-12.031 12.03-6.645 0-12.031-5.385-12.031-12.03S5.8115.4266 12.4565.4266c6.644 0 12.031 5.386 12.031 12.031z" stroke="#FFF" stroke-width=".5"/>
    <path d="M11.2146 13.1506l1.5914 1.5914c.136.136.203.313.203.491s-.067.354-.203.49c-.272.272-.71.272-.982 0l-2.775-2.775c-.1562-.157-.2224-.369-.1985-.5724.0147-.155.0812-.306.1994-.425l2.776-2.775c.271-.272.71-.272.981 0 .136.136.203.312.203.49s-.067.355-.203.491l-1.607 1.607h4.3532c.383 0 .694.31.694.694 0 .383-.311.693-.694.693h-4.3386z" fill="#FFF"/>
  </g>
</svg>
