<svg width="25" height="25" viewBox="0 0 25 25" xmlns="http://www.w3.org/2000/svg">
  <path d="M24.4875 12.4576c0 6.645-5.387 12.03-12.031 12.03-6.645 0-12.031-5.385-12.031-12.03S5.8115.4266 12.4565.4266c6.644 0 12.031 5.386 12.031 12.031zm-13.273.693h4.3386c.383 0 .694-.31.694-.693 0-.384-.311-.694-.694-.694H11.2l1.607-1.607c.136-.136.203-.313.203-.491s-.067-.354-.203-.49c-.271-.272-.71-.272-.981 0l-2.776 2.775c-.1183.119-.1848.27-.1995.425-.024.2034.0423.4154.1985.5724l2.775 2.775c.272.272.71.272.982 0 .136-.136.203-.312.203-.49s-.067-.355-.203-.491l-1.5914-1.5914z" fill="#FFF" fill-rule="evenodd"/>
</svg>
