<svg width="130" height="40" viewBox="0 0 130 40" xmlns="http://www.w3.org/2000/svg">
  <g fill="none" fill-rule="evenodd">
    <path d="M.045 10.836h4.738v17.545H.045V10.836zm4.738-2.715H.045v-3.97h4.738v3.97zM8.3702 10.8363h4.505v2.443h.1c1.202-1.967 3.27-2.918 5.273-2.918 5.039 0 6.307 2.885 6.307 7.229v10.791h-4.739v-9.909c0-2.885-.835-4.31-3.037-4.31-2.569 0-3.671 1.459-3.671 5.023v9.196h-4.738v-17.545zM39.2998 17.013c-.3-1.969-1.534-3.021-3.504-3.021-3.036 0-4.038 3.123-4.038 5.702 0 2.511.968 5.531 3.938 5.531 2.203 0 3.471-1.425 3.771-3.564h4.572c-.6 4.65-3.771 7.196-8.309 7.196-5.206 0-8.71-3.734-8.71-8.993 0-5.464 3.203-9.502 8.809-9.502 4.072 0 7.81 2.172 8.11 6.651h-4.639zM46.255 4.1517h4.738v9.128h.1c1.202-1.968 3.27-2.918 5.039-2.918 5.039 0 6.308 2.885 6.308 7.228v10.791h-4.739v-9.909c0-2.884-.835-4.309-3.037-4.309-2.569 0-3.671 1.459-3.671 5.022v9.196h-4.738V4.1517zM74.501 13.9925c-2.803 0-4.037 2.681-4.037 5.634 0 2.918 1.234 5.598 4.037 5.598 2.804 0 4.038-2.68 4.038-5.598 0-2.953-1.234-5.634-4.038-5.634zm-8.609-9.841h4.739v8.823h.066c1.168-1.798 3.304-2.613 5.44-2.613 3.437 0 7.141 2.817 7.141 9.231 0 6.447-3.704 9.264-7.141 9.264-2.536 0-4.639-.781-5.673-2.716h-.067v2.241h-4.505v-24.23zM96.876 19.7953c-.802.713-2.47.747-3.938 1.019-1.468.305-2.803.814-2.803 2.579 0 1.798 1.368 2.239 2.903 2.239 3.704 0 3.838-2.986 3.838-4.038v-1.799zm-10.946-3.563c.267-4.513 4.238-5.871 8.109-5.871 3.438 0 7.575.781 7.575 4.989v9.129c0 1.594.167 3.189.601 3.902h-4.806c-.166-.543-.3-1.12-.333-1.696-1.502 1.594-3.705 2.172-5.806 2.172-3.271 0-5.874-1.664-5.874-5.261 0-3.97 2.936-4.92 5.874-5.328 2.903-.441 5.606-.339 5.606-2.307 0-2.07-1.402-2.376-3.07-2.376-1.803 0-2.97.747-3.137 2.647H85.93zM104.965 28.381h4.738V4.152h-4.738M121.012 13.9925c-3.104 0-4.172 2.715-4.172 5.6 0 2.749 1.235 5.632 4.172 5.632 3.137 0 4.071-2.782 4.071-5.667 0-2.85-1.001-5.565-4.071-5.565zm4.138 12.148h-.067c-1.101 1.901-3.037 2.716-5.239 2.716-5.206 0-7.742-4.548-7.742-9.4 0-4.717 2.569-9.095 7.641-9.095 2.037 0 4.039.882 5.107 2.613h.066v-8.823h4.739v24.23h-4.505v-2.241z" fill="#FFF"/>
    <path fill="#F7931E" d="M0 .308h129.833V0H0"/>
    <path fill="#999" d="M.045 34.4525h3.849v.951H1.177v1.103H3.67v.879H1.177v1.261H3.95v.952H.045M9.67 37.89c0 .685.533.951 1.139.951.395 0 1.001-.115 1.001-.641 0-.556-.771-.649-1.528-.85-.763-.202-1.535-.497-1.535-1.464 0-1.052.994-1.556 1.924-1.556 1.074 0 2.062.468 2.062 1.658h-1.096c-.036-.62-.476-.779-1.016-.779-.36 0-.778.152-.778.583 0 .397.245.448 1.534.78.375.093 1.528.331 1.528 1.498 0 .944-.742 1.65-2.14 1.65-1.138 0-2.205-.561-2.191-1.83H9.67zM18.8975 35.4037h-1.542v-.951h4.216v.951h-1.542v4.194h-1.132M27.1104 37.6078h1.332l-.648-1.887h-.015l-.669 1.887zm.107-3.155h1.161l1.923 5.145h-1.174l-.389-1.146h-1.924l-.403 1.146h-1.147l1.953-5.145zM36.0645 38.718h1.211c.446 0 .836-.144.836-.677 0-.526-.332-.735-.815-.735h-1.232v1.412zm0-2.184h1.146c.396 0 .691-.179.691-.612 0-.489-.374-.591-.777-.591h-1.06v1.203zm-1.131-2.082h2.421c.981 0 1.643.318 1.643 1.276 0 .505-.252.857-.7 1.074.628.18.945.663.945 1.304 0 1.045-.887 1.492-1.816 1.492h-2.493v-5.146zM44.1905 34.4525h1.132v4.194h2.507v.952h-3.639M52.648 39.598h1.131v-5.146h-1.131M59.7266 37.89c0 .685.533.951 1.14.951.395 0 1.001-.115 1.001-.641 0-.556-.772-.649-1.529-.85-.762-.202-1.534-.497-1.534-1.464 0-1.052.994-1.556 1.924-1.556 1.074 0 2.061.468 2.061 1.658h-1.095c-.036-.62-.476-.779-1.017-.779-.359 0-.777.152-.777.583 0 .397.244.448 1.534.78.375.093 1.528.331 1.528 1.498 0 .944-.742 1.65-2.14 1.65-1.139 0-2.205-.561-2.191-1.83h1.095zM67.8164 34.4525h1.132v1.975h2.082v-1.975h1.132v5.146h-1.132v-2.22h-2.082v2.22h-1.132M77.341 34.4525h3.849v.951h-2.717v1.103h2.493v.879h-2.493v1.261h2.774v.952h-3.906M87.3252 38.6468h1.01c.655 0 1.282-.404 1.282-1.542 0-1.038-.36-1.701-1.484-1.701h-.808v3.243zm-1.131-4.194h2.22c1.332 0 2.335.836 2.335 2.543 0 1.492-.765 2.602-2.335 2.602h-2.22v-5.145zM104.232 39.598h-1.023v-3.271h-1.268v-.771c.713.014 1.369-.231 1.478-1.002h.813v5.044zM112.358 36.2328c0-.469-.303-.937-.814-.937-.491 0-.772.468-.772.922 0 .476.245.952.772.952.547 0 .814-.44.814-.937zm-1.549 2.067c.065.339.324.627.677.627.742 0 .936-.972.965-1.535l-.014-.013c-.281.396-.648.561-1.139.561-.432 0-.872-.201-1.16-.519-.266-.309-.388-.727-.388-1.124 0-1.03.712-1.844 1.764-1.844 1.528 0 1.939 1.333 1.939 2.608 0 1.233-.548 2.638-1.982 2.638-.872 0-1.519-.512-1.635-1.399h.973zM119.034 37.9183c0 .469.303.937.814.937.491 0 .771-.468.771-.922 0-.476-.244-.952-.771-.952-.547 0-.814.44-.814.937zm1.55-2.068c-.066-.339-.324-.626-.678-.626-.742 0-.936.971-.966 1.535l.015.013c.281-.396.648-.562 1.139-.562.431 0 .872.202 1.16.52.266.309.388.727.388 1.124 0 1.03-.712 1.844-1.765 1.844-1.528 0-1.938-1.333-1.938-2.609 0-1.232.547-2.637 1.982-2.637.872 0 1.52.512 1.635 1.398h-.972zM127.975 38.8548c.835 0 .835-1.231.835-1.801 0-.526 0-1.759-.835-1.759-.822 0-.822 1.233-.822 1.759 0 .57 0 1.801.822 1.801m0-4.402c1.008 0 1.858.633 1.858 2.601 0 2.011-.85 2.645-1.858 2.645-.995 0-1.846-.634-1.846-2.645 0-1.968.851-2.601 1.846-2.601"/>
  </g>
</svg>
