<svg width="429" height="137" viewBox="0 0 429 137" xmlns="http://www.w3.org/2000/svg" xmlns:xlink="http://www.w3.org/1999/xlink">
  <defs>
    <path id="a" d="M.754 17.94h34.074V.197H.754V17.94z"/>
  </defs>
  <g fill="none" fill-rule="evenodd">
    <path d="M.149 95.012h15.667V37.971H.149v57.041zm0-65.867h15.667V16.236H.149v12.909zM27.673 37.971h14.894v7.943h.331c3.972-6.399 10.813-9.488 17.433-9.488 16.659 0 20.852 9.378 20.852 23.501v35.085H65.516V62.795c0-9.378-2.758-14.012-10.04-14.012-8.496 0-12.136 4.744-12.136 16.329v29.9H27.673V37.971M129.934 58.051c-.994-6.4-5.076-9.82-11.585-9.82-10.04 0-13.35 10.151-13.35 18.535 0 8.166 3.199 17.985 13.019 17.985 7.281 0 11.474-4.634 12.467-11.585H145.6c-1.986 15.115-12.467 23.391-27.472 23.391-17.211 0-28.796-12.137-28.796-29.239 0-17.762 10.591-30.892 29.127-30.892 13.46 0 25.817 7.061 26.811 21.625h-15.336M152.925 16.236h15.667v29.678h.331c3.972-6.399 10.812-9.488 16.66-9.488 16.66 0 20.853 9.378 20.853 23.501v35.085h-15.667V62.795c0-9.378-2.759-14.012-10.04-14.012-8.496 0-12.137 4.744-12.137 16.329v29.9h-15.667V16.236M246.314 48.231c-9.267 0-13.349 8.716-13.349 18.316 0 9.488 4.082 18.204 13.349 18.204 9.268 0 13.351-8.716 13.351-18.204 0-9.6-4.083-18.316-13.351-18.316zM217.85 16.236h15.667v28.686h.22c3.862-5.848 10.923-8.496 17.984-8.496 11.364 0 23.611 9.157 23.611 30.01 0 20.962-12.247 30.121-23.611 30.121-8.385 0-15.336-2.539-18.756-8.828h-.221v7.283H217.85V16.236zM320.287 67.098c-2.648 2.317-8.164 2.427-13.019 3.31-4.855.993-9.268 2.648-9.268 8.385 0 5.847 4.523 7.282 9.599 7.282 12.247 0 12.688-9.709 12.688-13.13v-5.847zm-36.188-11.584c.882-14.675 14.011-19.088 26.81-19.088 11.364 0 25.045 2.538 25.045 16.218v29.679c0 5.186.552 10.371 1.985 12.689h-15.886c-.552-1.766-.993-3.641-1.104-5.517-4.965 5.186-12.247 7.062-19.197 7.062-10.813 0-19.419-5.407-19.419-17.102 0-12.908 9.709-15.998 19.419-17.322 9.599-1.434 18.535-1.103 18.535-7.502 0-6.731-4.634-7.723-10.15-7.723-5.958 0-9.82 2.427-10.371 8.606h-15.667zM347.03 95.012h15.667V16.236H347.03M400.085 48.231c-10.261 0-13.792 8.826-13.792 18.205 0 8.937 4.082 18.315 13.792 18.315 10.371 0 13.46-9.047 13.46-18.425 0-9.269-3.31-18.095-13.46-18.095zm13.681 39.498h-.221c-3.641 6.179-10.04 8.828-17.322 8.828-17.211 0-25.597-14.785-25.597-30.562 0-15.336 8.496-29.569 25.266-29.569 6.73 0 13.35 2.869 16.88 8.496h.221V16.236h15.667v78.776h-14.894v-7.283z" fill="#FFF"/>
    <path fill="#EB8B2D" d="M.149 2.856H428.66V.242H.149"/>
    <path fill="#FFF" d="M0 119.6h12.711v3.143H3.737v3.641h8.236v2.904H3.737v4.166H12.9v3.142H0V119.6M31.793 130.954c0 2.263 1.76 3.142 3.76 3.142 1.308 0 3.308-.379 3.308-2.118 0-1.835-2.546-2.143-5.047-2.808-2.522-.667-5.069-1.642-5.069-4.834 0-3.474 3.285-5.139 6.356-5.139 3.545 0 6.807 1.546 6.807 5.476H38.29c-.12-2.051-1.57-2.574-3.356-2.574-1.191 0-2.571.501-2.571 1.928 0 1.31.809 1.478 5.07 2.572 1.238.31 5.046 1.093 5.046 4.95 0 3.119-2.452 5.451-7.069 5.451-3.761 0-7.284-1.856-7.236-6.046h3.619M62.274 122.743H57.18V119.6h13.925v3.143h-5.093v13.853h-3.738v-13.853M89.4 130.024h4.402l-2.142-6.233h-.047l-2.213 6.233zm.357-10.424h3.831l6.355 16.996h-3.878l-1.286-3.785h-6.356l-1.332 3.785h-3.785l6.451-16.996zM118.979 133.69h3.999c1.476 0 2.761-.473 2.761-2.236 0-1.738-1.095-2.429-2.69-2.429h-4.07v4.665zm0-7.212h3.784c1.309 0 2.285-.592 2.285-2.023 0-1.615-1.237-1.951-2.57-1.951h-3.499v3.974zm-3.737-6.878h7.998c3.237 0 5.427 1.048 5.427 4.213 0 1.667-.834 2.832-2.31 3.547 2.072.595 3.119 2.191 3.119 4.308 0 3.451-2.928 4.928-5.998 4.928h-8.236V119.6zM145.82 119.6h3.738v13.854h8.282v3.142h-12.02V119.6"/>
    <g transform="translate(173 119)">
      <mask id="b" fill="#fff">
        <use xlink:href="#a"/>
      </mask>
      <path fill="#FFF" mask="url(#b)" d="M.754 17.596h3.737V.6H.754M24.14 11.954c0 2.263 1.761 3.142 3.762 3.142 1.308 0 3.308-.379 3.308-2.118 0-1.835-2.547-2.143-5.047-2.808-2.521-.667-5.069-1.642-5.069-4.834 0-3.474 3.285-5.139 6.355-5.139 3.548 0 6.807 1.546 6.807 5.476h-3.618c-.118-2.051-1.569-2.574-3.356-2.574-1.19 0-2.57.501-2.57 1.928 0 1.31.809 1.478 5.07 2.572 1.238.31 5.046 1.093 5.046 4.95 0 3.119-2.452 5.451-7.069 5.451-3.761 0-7.284-1.856-7.237-6.046h3.618"/>
    </g>
    <path fill="#FFF" d="M223.862 119.6h3.737v6.522h6.878V119.6h3.738v16.996h-3.738v-7.332h-6.878v7.332h-3.737V119.6M255.321 119.6h12.713v3.143h-8.974v3.641h8.235v2.904h-8.235v4.166h9.164v3.142h-12.903V119.6M288.304 133.454h3.334c2.164 0 4.234-1.334 4.234-5.094 0-3.429-1.188-5.617-4.903-5.617h-2.665v10.711zm-3.737-13.854h7.33c4.403 0 7.713 2.763 7.713 8.402 0 4.928-2.523 8.594-7.713 8.594h-7.33V119.6zM344.147 136.596h-3.379V125.79h-4.188v-2.546c2.356.047 4.522-.763 4.88-3.31h2.687v16.662M370.988 125.48c0-1.548-1-3.094-2.689-3.094-1.62 0-2.548 1.546-2.548 3.046 0 1.572.808 3.142 2.548 3.142 1.808 0 2.689-1.451 2.689-3.094zm-5.117 6.831c.213 1.119 1.071 2.071 2.237 2.071 2.452 0 3.094-3.213 3.188-5.071l-.046-.047c-.929 1.31-2.144 1.857-3.761 1.857-1.429 0-2.88-.666-3.833-1.715-.88-1.022-1.285-2.402-1.285-3.712 0-3.403 2.357-6.094 5.831-6.094 5.046 0 6.403 4.404 6.403 8.616 0 4.072-1.809 8.713-6.545 8.713-2.88 0-5.021-1.689-5.404-4.618h3.215zM393.044 131.048c0 1.549 1 3.095 2.689 3.095 1.619 0 2.546-1.546 2.546-3.047 0-1.571-.808-3.141-2.546-3.141-1.808 0-2.689 1.451-2.689 3.093zm5.117-6.83c-.214-1.12-1.071-2.07-2.236-2.07-2.452 0-3.095 3.211-3.191 5.071l.048.044c.929-1.307 2.143-1.855 3.761-1.855 1.427 0 2.88.666 3.831 1.715.882 1.022 1.286 2.402 1.286 3.713 0 3.403-2.357 6.093-5.832 6.093-5.045 0-6.401-4.404-6.401-8.619 0-4.069 1.807-8.71 6.544-8.71 2.881 0 5.022 1.691 5.404 4.618h-3.214zM422.574 134.143c2.759 0 2.759-4.068 2.759-5.95 0-1.737 0-5.807-2.759-5.807-2.716 0-2.716 4.07-2.716 5.807 0 1.882 0 5.95 2.716 5.95zm0-14.543c3.33 0 6.14 2.094 6.14 8.593 0 6.642-2.81 8.736-6.14 8.736-3.285 0-6.095-2.094-6.095-8.736 0-6.499 2.81-8.593 6.095-8.593z"/>
  </g>
</svg>
