<svg width="56" height="55" viewBox="0 0 56 55" xmlns="http://www.w3.org/2000/svg">
  <g fill-rule="evenodd">
    <path d="M1.0986 54.2977h11.402v-36.195H1.0985M6.7425 13.3618c3.7265 0 6.7473-2.9926 6.7473-6.6786C13.4898 2.9926 10.469 0 6.7425 0S0 2.9925 0 6.6833c0 3.686 3.016 6.6785 6.7425 6.6785M30.725 35.2977c0-5.0872 2.3828-8.1225 6.9455-8.1225 4.1954 0 6.206 2.907 6.206 8.1225v19h11.344V31.379c0-9.6948-5.5875-14.3878-13.3982-14.3878-7.8106 0-11.0973 5.985-11.0973 5.985v-4.8735H19.7872v36.195H30.725v-19z"/>
  </g>
</svg>
