<svg width="17" height="23" viewBox="0 0 17 23" xmlns="http://www.w3.org/2000/svg">
  <path d="M11.5673 9.2237H4.862V6.4173c0-1.8485 1.5042-3.3526 3.3527-3.3526s3.3526 1.504 3.3526 3.3526v2.8064zm-2.3167 7.577v2.6503c0 .234-.1884.4197-.4198.4197H7.5985c-.2314 0-.417-.1856-.417-.4197v-2.6503c-.4602-.3256-.7588-.8584-.7588-1.4638 0-.9876.8045-1.792 1.792-1.792.99 0 1.792.8044 1.792 1.792 0 .6053-.296 1.138-.756 1.4637zm6.5168-7.577H14.632V6.4173C14.632 2.8817 11.753 0 8.2147 0S1.8 2.8817 1.8 6.4173v2.8064H.6647c-.366 0-.6646.296-.6646.6646V22.338c0 .366.2987.662.6646.662h15.1028c.366 0 .6646-.296.6646-.662V9.8884c0-.3686-.2986-.6646-.6646-.6646z" fill-rule="evenodd"/>
</svg>
