<svg width="56" height="71" viewBox="0 0 56 71" xmlns="http://www.w3.org/2000/svg">
  <path d="M8.402 40.6305c.932.3734 1.7775.0142 2.0514-1.0117.1873-.7043.639-2.4912.8406-3.238.274-1.0117.1682-1.3663-.5908-2.2503-1.6526-1.9145-2.7095-4.401-2.7095-7.918 0-10.1967 7.7536-19.3298 20.191-19.3298 11.0154 0 17.0683 6.6276 17.0683 15.4723 0 11.6384-5.2362 21.457-13.0042 21.457-4.2947 0-7.5037-3.4888-6.4757-7.7764 1.2347-5.11 3.6223-10.6316 3.6223-14.3188 0-3.3043-1.8015-6.0603-5.5294-6.0603-4.386 0-7.912 4.4625-7.912 10.4472 0 3.8054 1.3113 6.3865 1.3113 6.3865s-4.4916 18.715-5.2795 21.991c-1.566 6.5284-.2354 14.527-.12 15.3352.0672.4775.6917.5957.975.2364.4036-.5247 5.6303-6.8687 7.403-13.208.5044-1.7963 2.8823-11.0947 2.8823-11.0947 1.427 2.671 5.592 5.025 10.0163 5.025 13.1916 0 22.1365-11.8227 22.1365-27.6542 0-11.9694-10.3044-23.121-25.9652-23.121C9.8288 0 0 13.747 0 25.2103c0 6.9443 2.6758 13.118 8.402 15.4203" fill="#000" fill-rule="evenodd"/>
</svg>
