<svg width="40" height="40" viewBox="0 0 40 40" xmlns="http://www.w3.org/2000/svg">
  <g fill-rule="evenodd">
    <path d="M16 3.9147C9.3364 3.9147 3.9147 9.3397 3.9147 16c0 6.6636 5.4217 12.0886 12.0853 12.0886 6.667 0 12.0853-5.425 12.0853-12.0886C28.0853 9.3397 22.667 3.9147 16 3.9147M16 32C7.177 32 0 24.823 0 16S7.177 0 16 0s16 7.177 16 16-7.177 16-16 16"/>
    <path d="M37.9984 40c-.508 0-1.0224-.1963-1.4118-.5856L25.584 28.413c-.7787-.7786-.7787-2.0446 0-2.8265.7786-.782 2.0448-.782 2.8302 0l10.9993 10.998c.782.7853.782 2.048 0 2.83-.3894.3892-.904.5855-1.415.5855"/>
  </g>
</svg>
