<svg width="62" height="50" viewBox="0 0 62 50" xmlns="http://www.w3.org/2000/svg">
  <path d="M0 43.4764c5.563 3.5123 12.178 5.564 19.2878 5.564 23.3567 0 36.553-19.4148 35.7605-36.83 2.4596-1.7396 4.5877-3.9236 6.2787-6.41-2.258.9832-4.6838 1.6497-7.225 1.9475C56.696 6.221 58.6895 3.791 59.631.898c-2.4356 1.423-5.1258 2.4534-7.989 3.0065C49.3413 1.4985 46.0746 0 42.4573 0c-8.1235 0-14.09 7.455-12.255 15.2028-10.4628-.52-19.7296-5.4505-25.9315-12.9432C.9704 7.8283 2.5557 15.1082 8.162 18.7908c-2.061-.0615-4.0066-.624-5.6976-1.5458-.1393 5.734 4.04 11.0995 10.0883 12.2955-1.7727.4727-3.7087.5814-5.6783.2127 1.5997 4.921 6.2403 8.4996 11.7504 8.599C13.3358 42.4316 6.6728 44.2516 0 43.4763" fill="#000" fill-rule="evenodd"/>
</svg>
