<svg xmlns="http://www.w3.org/2000/svg" xmlns:xlink="http://www.w3.org/1999/xlink" style="display:none"><defs><path id="a" d="M.754 17.94h34.074V.197H.754V17.94z"/></defs><symbol id="shape-arrow" viewBox="0 0 60 57"><g fill-rule="evenodd"><path d="M0 28.5C0 25.465 2.542 23 5.654 23h37.684C46.458 23 49 25.465 49 28.5S46.458 34 43.338 34H5.654C2.542 34 0 31.535 0 28.5"/><path d="M26 5.666c0-1.445.555-2.898 1.658-4a5.66 5.66 0 0 1 8.02 0L58.34 24.323a5.671 5.671 0 0 1 0 8.018 5.664 5.664 0 0 1-8.011 0L27.658 9.675A5.669 5.669 0 0 1 26 5.666"/><path d="M26 51.33c0-1.445.547-2.899 1.658-4.001l22.67-22.67a5.664 5.664 0 0 1 8.012 0 5.663 5.663 0 0 1 0 8.012L35.678 55.34a5.672 5.672 0 0 1-8.02 0A5.637 5.637 0 0 1 26 51.33"/></g></symbol><symbol id="shape-close" viewBox="0 0 224.512 224.512"><path d="M224.507 6.997L217.521 0 112.256 105.258 6.998 0 .005 6.997l105.258 105.257L.005 217.512l6.993 7L112.256 119.24l105.265 105.272 6.986-7-105.258-105.258"/></symbol><symbol id="shape-event-arrow-next" viewBox="0 0 25 25"><path d="M0 12.03C0 5.385 5.387 0 12.031 0c6.645 0 12.031 5.385 12.031 12.03s-5.386 12.031-12.031 12.031C5.387 24.061 0 18.675 0 12.03zm13.273-.693H8.935a.694.694 0 1 0 0 1.387h4.353l-1.607 1.607a.69.69 0 0 0 0 .981c.27.272.71.272.98 0l2.777-2.775a.694.694 0 0 0 .2-.425.694.694 0 0 0-.2-.572l-2.774-2.775a.693.693 0 1 0-.982.98l1.591 1.592z" fill="#FFF" fill-rule="evenodd"/></symbol><symbol id="shape-event-arrow-prev" viewBox="0 0 25 25"><path d="M24.488 12.458c0 6.645-5.387 12.03-12.031 12.03-6.646 0-12.032-5.385-12.032-12.03S5.811.427 12.457.427c6.645 0 12.032 5.386 12.032 12.03zm-13.273.693h4.338a.694.694 0 1 0 0-1.387H11.2l1.607-1.607a.69.69 0 0 0 0-.981.692.692 0 0 0-.981 0L9.05 11.95a.694.694 0 0 0-.2.425.694.694 0 0 0 .199.572l2.775 2.775a.693.693 0 1 0 .982-.981l-1.591-1.591z" fill="#FFF" fill-rule="evenodd"/></symbol><symbol id="shape-facebook" viewBox="0 0 32 67"><path d="M7.086 66.574H20.71V33h9.502l1.014-11.237H20.71v-6.4c0-2.652.538-3.697 3.142-3.697h7.374V0h-9.43C11.654 0 7.085 4.396 7.085 12.801v8.963H0v11.383h7.086v33.427z" fill-rule="evenodd"/></symbol><symbol id="shape-inchbald" viewBox="0 0 429 137"><g fill="none" fill-rule="evenodd"><path d="M.149 95.012h15.667V37.971H.149v57.041zm0-65.867h15.667V16.236H.149v12.909zm27.524 8.826h14.894v7.943h.331c3.972-6.399 10.813-9.488 17.433-9.488 16.659 0 20.852 9.378 20.852 23.501v35.085H65.516V62.795c0-9.378-2.758-14.012-10.04-14.012-8.496 0-12.136 4.744-12.136 16.329v29.9H27.673V37.971m102.261 20.08c-.994-6.4-5.076-9.82-11.585-9.82-10.04 0-13.35 10.151-13.35 18.535 0 8.166 3.199 17.985 13.019 17.985 7.281 0 11.474-4.634 12.467-11.585H145.6c-1.986 15.115-12.467 23.391-27.472 23.391-17.211 0-28.796-12.137-28.796-29.239 0-17.762 10.591-30.892 29.127-30.892 13.46 0 25.817 7.061 26.811 21.625h-15.336m22.991-41.815h15.667v29.678h.331c3.972-6.399 10.812-9.488 16.66-9.488 16.66 0 20.853 9.378 20.853 23.501v35.085h-15.667V62.795c0-9.378-2.759-14.012-10.04-14.012-8.496 0-12.137 4.744-12.137 16.329v29.9h-15.667V16.236m93.389 31.995c-9.267 0-13.349 8.716-13.349 18.316 0 9.488 4.082 18.204 13.349 18.204 9.268 0 13.351-8.716 13.351-18.204 0-9.6-4.083-18.316-13.351-18.316zM217.85 16.236h15.667v28.686h.22c3.862-5.848 10.923-8.496 17.984-8.496 11.364 0 23.611 9.157 23.611 30.01 0 20.962-12.247 30.121-23.611 30.121-8.385 0-15.336-2.539-18.756-8.828h-.221v7.283H217.85V16.236zm102.437 50.862c-2.648 2.317-8.164 2.427-13.019 3.31-4.855.993-9.268 2.648-9.268 8.385 0 5.847 4.523 7.282 9.599 7.282 12.247 0 12.688-9.709 12.688-13.13v-5.847zm-36.188-11.584c.882-14.675 14.011-19.088 26.81-19.088 11.364 0 25.045 2.538 25.045 16.218v29.679c0 5.186.552 10.371 1.985 12.689h-15.886c-.552-1.766-.993-3.641-1.104-5.517-4.965 5.186-12.247 7.062-19.197 7.062-10.813 0-19.419-5.407-19.419-17.102 0-12.908 9.709-15.998 19.419-17.322 9.599-1.434 18.535-1.103 18.535-7.502 0-6.731-4.634-7.723-10.15-7.723-5.958 0-9.82 2.427-10.371 8.606h-15.667zm62.931 39.498h15.667V16.236H347.03m53.055 31.995c-10.261 0-13.792 8.826-13.792 18.205 0 8.937 4.082 18.315 13.792 18.315 10.371 0 13.46-9.047 13.46-18.425 0-9.269-3.31-18.095-13.46-18.095zm13.681 39.498h-.221c-3.641 6.179-10.04 8.828-17.322 8.828-17.211 0-25.597-14.785-25.597-30.562 0-15.336 8.496-29.569 25.266-29.569 6.73 0 13.35 2.869 16.88 8.496h.221V16.236h15.667v78.776h-14.894v-7.283z" fill="#FFF"/><path fill="#EB8B2D" d="M.149 2.856H428.66V.242H.149"/><path fill="#FFF" d="M0 119.6h12.711v3.143H3.737v3.641h8.236v2.904H3.737v4.166H12.9v3.142H0V119.6m31.793 11.354c0 2.263 1.76 3.142 3.76 3.142 1.308 0 3.308-.379 3.308-2.118 0-1.835-2.546-2.143-5.047-2.808-2.522-.667-5.069-1.642-5.069-4.834 0-3.474 3.285-5.139 6.356-5.139 3.545 0 6.807 1.546 6.807 5.476H38.29c-.12-2.051-1.57-2.574-3.356-2.574-1.191 0-2.571.501-2.571 1.928 0 1.31.809 1.478 5.07 2.572 1.238.31 5.046 1.093 5.046 4.95 0 3.119-2.452 5.451-7.069 5.451-3.761 0-7.284-1.856-7.236-6.046h3.619m30.481-8.211H57.18V119.6h13.925v3.143h-5.093v13.853h-3.738v-13.853m27.126 7.281h4.402l-2.142-6.233h-.047l-2.213 6.233zm.357-10.424h3.831l6.355 16.996h-3.878l-1.286-3.785h-6.356l-1.332 3.785h-3.785l6.451-16.996zm29.222 14.09h3.999c1.476 0 2.761-.473 2.761-2.236 0-1.738-1.095-2.429-2.69-2.429h-4.07v4.665zm0-7.212h3.784c1.309 0 2.285-.592 2.285-2.023 0-1.615-1.237-1.951-2.57-1.951h-3.499v3.974zm-3.737-6.878h7.998c3.237 0 5.427 1.048 5.427 4.213 0 1.667-.834 2.832-2.31 3.547 2.072.595 3.119 2.191 3.119 4.308 0 3.451-2.928 4.928-5.998 4.928h-8.236V119.6zm30.578 0h3.738v13.854h8.282v3.142h-12.02V119.6"/><g transform="translate(173 119)"><mask id="b" fill="#fff"><use xlink:href="#a"/></mask><path fill="#FFF" mask="url(#b)" d="M.754 17.596h3.737V.6H.754M24.14 11.954c0 2.263 1.761 3.142 3.762 3.142 1.308 0 3.308-.379 3.308-2.118 0-1.835-2.547-2.143-5.047-2.808-2.521-.667-5.069-1.642-5.069-4.834 0-3.474 3.285-5.139 6.355-5.139 3.548 0 6.807 1.546 6.807 5.476h-3.618c-.118-2.051-1.569-2.574-3.356-2.574-1.19 0-2.57.501-2.57 1.928 0 1.31.809 1.478 5.07 2.572 1.238.31 5.046 1.093 5.046 4.95 0 3.119-2.452 5.451-7.069 5.451-3.761 0-7.284-1.856-7.237-6.046h3.618"/></g><path fill="#FFF" d="M223.862 119.6h3.737v6.522h6.878V119.6h3.738v16.996h-3.738v-7.332h-6.878v7.332h-3.737V119.6m31.459 0h12.713v3.143h-8.974v3.641h8.235v2.904h-8.235v4.166h9.164v3.142h-12.903V119.6m32.983 13.854h3.334c2.164 0 4.234-1.334 4.234-5.094 0-3.429-1.188-5.617-4.903-5.617h-2.665v10.711zm-3.737-13.854h7.33c4.403 0 7.713 2.763 7.713 8.402 0 4.928-2.523 8.594-7.713 8.594h-7.33V119.6zm59.58 16.996h-3.379V125.79h-4.188v-2.546c2.356.047 4.522-.763 4.88-3.31h2.687v16.662m26.841-11.116c0-1.548-1-3.094-2.689-3.094-1.62 0-2.548 1.546-2.548 3.046 0 1.572.808 3.142 2.548 3.142 1.808 0 2.689-1.451 2.689-3.094zm-5.117 6.831c.213 1.119 1.071 2.071 2.237 2.071 2.452 0 3.094-3.213 3.188-5.071l-.046-.047c-.929 1.31-2.144 1.857-3.761 1.857-1.429 0-2.88-.666-3.833-1.715-.88-1.022-1.285-2.402-1.285-3.712 0-3.403 2.357-6.094 5.831-6.094 5.046 0 6.403 4.404 6.403 8.616 0 4.072-1.809 8.713-6.545 8.713-2.88 0-5.021-1.689-5.404-4.618h3.215zm27.173-1.263c0 1.549 1 3.095 2.689 3.095 1.619 0 2.546-1.546 2.546-3.047 0-1.571-.808-3.141-2.546-3.141-1.808 0-2.689 1.451-2.689 3.093zm5.117-6.83c-.214-1.12-1.071-2.07-2.236-2.07-2.452 0-3.095 3.211-3.191 5.071l.048.044c.929-1.307 2.143-1.855 3.761-1.855 1.427 0 2.88.666 3.831 1.715.882 1.022 1.286 2.402 1.286 3.713 0 3.403-2.357 6.093-5.832 6.093-5.045 0-6.401-4.404-6.401-8.619 0-4.069 1.807-8.71 6.544-8.71 2.881 0 5.022 1.691 5.404 4.618h-3.214zm24.413 9.925c2.759 0 2.759-4.068 2.759-5.95 0-1.737 0-5.807-2.759-5.807-2.716 0-2.716 4.07-2.716 5.807 0 1.882 0 5.95 2.716 5.95zm0-14.543c3.33 0 6.14 2.094 6.14 8.593 0 6.642-2.81 8.736-6.14 8.736-3.285 0-6.095-2.094-6.095-8.736 0-6.499 2.81-8.593 6.095-8.593z"/></g></symbol><symbol id="shape-insta" viewBox="0 0 169.063 169.063"><path d="M122.406 0H46.654C20.929 0 0 20.93 0 46.655v75.752c0 25.726 20.929 46.655 46.654 46.655h75.752c25.727 0 46.656-20.93 46.656-46.655V46.655C169.063 20.93 148.133 0 122.406 0zm31.657 122.407c0 17.455-14.201 31.655-31.656 31.655H46.654C29.2 154.063 15 139.862 15 122.407V46.655C15 29.201 29.2 15 46.654 15h75.752c17.455 0 31.656 14.201 31.656 31.655v75.752z"/><path d="M84.531 40.97c-24.021 0-43.563 19.542-43.563 43.563 0 24.02 19.542 43.561 43.563 43.561s43.563-19.541 43.563-43.561c0-24.021-19.542-43.563-43.563-43.563zm0 72.123c-15.749 0-28.563-12.812-28.563-28.561 0-15.75 12.813-28.563 28.563-28.563s28.563 12.813 28.563 28.563c0 15.749-12.814 28.561-28.563 28.561zm45.39-84.842c-2.89 0-5.729 1.17-7.77 3.22a11.053 11.053 0 0 0-3.23 7.78c0 2.891 1.18 5.73 3.23 7.78 2.04 2.04 4.88 3.22 7.77 3.22 2.9 0 5.73-1.18 7.78-3.22 2.05-2.05 3.22-4.89 3.22-7.78 0-2.9-1.17-5.74-3.22-7.78-2.04-2.05-4.88-3.22-7.78-3.22z"/></symbol><symbol id="shape-linkedin" viewBox="0 0 56 55"><path d="M1.099 54.298H12.5V18.103H1.099m5.643-4.741c3.727 0 6.748-2.993 6.748-6.679C13.49 2.993 10.469 0 6.742 0S0 2.993 0 6.683c0 3.686 3.016 6.679 6.742 6.679m23.983 21.936c0-5.088 2.383-8.123 6.946-8.123 4.195 0 6.206 2.907 6.206 8.123v19H55.22V31.379c0-9.695-5.588-14.388-13.399-14.388-7.81 0-11.097 5.985-11.097 5.985v-4.873H19.787v36.195h10.938v-19z" fill-rule="evenodd"/></symbol><symbol id="shape-lock" viewBox="0 0 17 23"><path d="M11.567 9.224H4.862V6.417c0-1.848 1.504-3.352 3.353-3.352s3.352 1.504 3.352 3.352v2.807zM9.251 16.8v2.65c0 .234-.189.42-.42.42H7.599a.416.416 0 0 1-.418-.42v-2.65a1.787 1.787 0 0 1-.758-1.464A1.793 1.793 0 1 1 9.25 16.8zm6.516-7.577h-1.135V6.417C14.632 2.882 11.753 0 8.215 0S1.8 2.882 1.8 6.417v2.807H.665A.664.664 0 0 0 0 9.888v12.45C0 22.704.3 23 .665 23h15.102a.664.664 0 0 0 .665-.662V9.888a.664.664 0 0 0-.665-.664z" fill-rule="evenodd"/></symbol><symbol id="shape-pint" viewBox="0 0 56 71"><path d="M8.402 40.63c.932.374 1.778.015 2.051-1.011.188-.704.64-2.491.841-3.238.274-1.012.168-1.366-.59-2.25-1.653-1.915-2.71-4.402-2.71-7.919 0-10.196 7.753-19.33 20.19-19.33 11.016 0 17.069 6.628 17.069 15.473 0 11.638-5.236 21.457-13.004 21.457-4.295 0-7.504-3.489-6.476-7.776 1.235-5.11 3.622-10.632 3.622-14.32 0-3.304-1.801-6.06-5.529-6.06-4.386 0-7.912 4.463-7.912 10.448 0 3.805 1.311 6.386 1.311 6.386s-4.491 18.715-5.28 21.991c-1.565 6.529-.235 14.527-.12 15.335.068.478.693.596.976.237.403-.525 5.63-6.869 7.403-13.208.504-1.797 2.882-11.095 2.882-11.095 1.427 2.671 5.592 5.025 10.016 5.025 13.192 0 22.137-11.823 22.137-27.654C55.279 11.15 44.975 0 29.314 0 9.829 0 0 13.747 0 25.21c0 6.945 2.676 13.118 8.402 15.42" fill-rule="evenodd"/></symbol><symbol id="shape-play" viewBox="0 0 52 52"><g fill-rule="evenodd"><path d="M26 3.203c-12.572 0-22.802 10.229-22.802 22.8 0 12.57 10.23 22.8 22.802 22.8s22.802-10.23 22.802-22.8c0-12.572-10.23-22.8-22.802-22.8M26 52C11.658 52 0 40.339 0 26.002 0 11.662 11.658 0 26 0s26 11.662 26 26.002C52 40.338 40.342 52 26 52"/><path d="M37 26.5l-9 5.247L19 37V16l9 5.247"/></g></symbol><symbol id="shape-search" viewBox="0 0 40 40"><g fill-rule="evenodd"><path d="M16 3.915C9.336 3.915 3.915 9.34 3.915 16c0 6.664 5.421 12.089 12.085 12.089 6.667 0 12.085-5.425 12.085-12.089 0-6.66-5.418-12.085-12.085-12.085M16 32C7.177 32 0 24.823 0 16S7.177 0 16 0s16 7.177 16 16-7.177 16-16 16"/><path d="M37.998 40a1.998 1.998 0 0 1-1.411-.586L25.584 28.413a2 2 0 0 1 2.83-2.826l11 10.998A2 2 0 0 1 37.998 40"/></g></symbol><symbol id="shape-twitter" viewBox="0 0 62 50"><path d="M0 43.476a36.018 36.018 0 0 0 19.288 5.564c23.357 0 36.553-19.414 35.76-36.83a25.243 25.243 0 0 0 6.279-6.41 25.513 25.513 0 0 1-7.225 1.948C56.696 6.22 58.69 3.79 59.631.898a25.354 25.354 0 0 1-7.989 3.006A12.672 12.672 0 0 0 42.457 0c-8.123 0-14.09 7.455-12.255 15.203-10.463-.52-19.73-5.45-25.931-12.943-3.3 5.568-1.715 12.848 3.891 16.53a12.7 12.7 0 0 1-5.698-1.545c-.139 5.734 4.04 11.1 10.089 12.295a12.842 12.842 0 0 1-5.679.213c1.6 4.921 6.24 8.5 11.75 8.6C13.337 42.431 6.674 44.251 0 43.475" fill-rule="evenodd"/></symbol></svg>