<svg xmlns="http://www.w3.org/2000/svg" style="display:none"><symbol id="shape-arrow" viewBox="0 0 60 57"><g fill-rule="evenodd"><path d="M0 28.5C0 25.465 2.542 23 5.654 23h37.684C46.458 23 49 25.465 49 28.5S46.458 34 43.338 34H5.654C2.542 34 0 31.535 0 28.5"/><path d="M26 5.666c0-1.445.555-2.898 1.658-4a5.66 5.66 0 0 1 8.02 0L58.34 24.323a5.671 5.671 0 0 1 0 8.018 5.664 5.664 0 0 1-8.011 0L27.658 9.675A5.669 5.669 0 0 1 26 5.666"/><path d="M26 51.33c0-1.445.547-2.899 1.658-4.001l22.67-22.67a5.664 5.664 0 0 1 8.012 0 5.663 5.663 0 0 1 0 8.012L35.678 55.34a5.672 5.672 0 0 1-8.02 0A5.637 5.637 0 0 1 26 51.33"/></g></symbol><symbol id="shape-close" viewBox="0 0 224.512 224.512"><path d="M224.507 6.997L217.521 0 112.256 105.258 6.998 0 .005 6.997l105.258 105.257L.005 217.512l6.993 7L112.256 119.24l105.265 105.272 6.986-7-105.258-105.258"/></symbol><symbol id="shape-event-arrow-next" viewBox="0 0 25 25"><path d="M0 12.03C0 5.385 5.387 0 12.031 0c6.645 0 12.031 5.385 12.031 12.03s-5.386 12.031-12.031 12.031C5.387 24.061 0 18.675 0 12.03zm13.273-.693H8.935a.694.694 0 1 0 0 1.387h4.353l-1.607 1.607a.69.69 0 0 0 0 .981c.27.272.71.272.98 0l2.777-2.775a.694.694 0 0 0 .2-.425.694.694 0 0 0-.2-.572l-2.774-2.775a.693.693 0 1 0-.982.98l1.591 1.592z" fill="#FFF" fill-rule="evenodd"/></symbol><symbol id="shape-event-arrow-prev" viewBox="0 0 25 25"><path d="M24.488 12.458c0 6.645-5.387 12.03-12.031 12.03-6.646 0-12.032-5.385-12.032-12.03S5.811.427 12.457.427c6.645 0 12.032 5.386 12.032 12.03zm-13.273.693h4.338a.694.694 0 1 0 0-1.387H11.2l1.607-1.607a.69.69 0 0 0 0-.981.692.692 0 0 0-.981 0L9.05 11.95a.694.694 0 0 0-.2.425.694.694 0 0 0 .199.572l2.775 2.775a.693.693 0 1 0 .982-.981l-1.591-1.591z" fill="#FFF" fill-rule="evenodd"/></symbol><symbol id="shape-facebook" viewBox="0 0 32 67"><path d="M7.086 66.574H20.71V33h9.502l1.014-11.237H20.71v-6.4c0-2.652.538-3.697 3.142-3.697h7.374V0h-9.43C11.654 0 7.085 4.396 7.085 12.801v8.963H0v11.383h7.086v33.427z" fill-rule="evenodd"/></symbol><symbol id="shape-inchbald" viewBox="0 0 130 40"><g fill="none" fill-rule="evenodd"><path d="M.045 10.836h4.738v17.545H.045V10.836zm4.738-2.715H.045v-3.97h4.738v3.97zm3.587 2.715h4.505v2.443h.1c1.202-1.967 3.27-2.918 5.273-2.918 5.04 0 6.307 2.885 6.307 7.23v10.79h-4.739v-9.909c0-2.885-.835-4.31-3.037-4.31-2.569 0-3.67 1.46-3.67 5.023v9.196H8.37V10.836zm30.93 6.177c-.3-1.969-1.534-3.021-3.504-3.021-3.036 0-4.038 3.123-4.038 5.702 0 2.511.968 5.531 3.938 5.531 2.203 0 3.47-1.425 3.77-3.564h4.573c-.6 4.65-3.771 7.196-8.31 7.196-5.205 0-8.71-3.734-8.71-8.993 0-5.464 3.204-9.502 8.81-9.502 4.072 0 7.81 2.172 8.11 6.651h-4.64zm6.955-12.861h4.738v9.128h.1c1.202-1.968 3.27-2.918 5.039-2.918 5.039 0 6.308 2.885 6.308 7.228v10.79h-4.739v-9.908c0-2.884-.835-4.31-3.037-4.31-2.569 0-3.671 1.46-3.671 5.023v9.196h-4.738V4.15zm28.246 9.84c-2.803 0-4.037 2.681-4.037 5.634 0 2.918 1.234 5.598 4.037 5.598 2.804 0 4.038-2.68 4.038-5.598 0-2.953-1.234-5.634-4.038-5.634zm-8.609-9.84h4.739v8.823h.066c1.168-1.798 3.304-2.613 5.44-2.613 3.437 0 7.141 2.817 7.141 9.23 0 6.448-3.704 9.265-7.141 9.265-2.536 0-4.639-.781-5.673-2.716h-.067v2.24h-4.505V4.151zm30.984 15.643c-.802.713-2.47.747-3.938 1.02-1.468.304-2.803.813-2.803 2.578 0 1.798 1.368 2.24 2.903 2.24 3.704 0 3.838-2.987 3.838-4.039v-1.799zM85.93 16.232c.267-4.513 4.238-5.87 8.109-5.87 3.438 0 7.575.78 7.575 4.988v9.13c0 1.593.167 3.188.601 3.901h-4.806c-.166-.543-.3-1.12-.333-1.696-1.502 1.594-3.705 2.172-5.806 2.172-3.271 0-5.874-1.664-5.874-5.26 0-3.97 2.936-4.92 5.874-5.329 2.903-.44 5.606-.339 5.606-2.307 0-2.07-1.402-2.376-3.07-2.376-1.803 0-2.97.747-3.137 2.647H85.93zm19.035 12.149h4.738V4.152h-4.738m16.047 9.84c-3.104 0-4.172 2.715-4.172 5.6 0 2.75 1.235 5.633 4.172 5.633 3.137 0 4.071-2.783 4.071-5.668 0-2.85-1.001-5.565-4.071-5.565zm4.138 12.148h-.067c-1.101 1.901-3.037 2.716-5.239 2.716-5.206 0-7.742-4.548-7.742-9.4 0-4.717 2.569-9.095 7.641-9.095 2.037 0 4.039.882 5.107 2.613h.066V4.151h4.739v24.23h-4.505v-2.24z" fill="#FFF"/><path fill="#F7931E" d="M0 .308h129.833V0H0"/><path fill="#999" d="M.045 34.453h3.849v.95H1.177v1.104H3.67v.879H1.177v1.26H3.95v.953H.045M9.67 37.89c0 .685.533.951 1.139.951.395 0 1.001-.115 1.001-.641 0-.556-.771-.649-1.528-.85-.763-.202-1.535-.497-1.535-1.464 0-1.052.994-1.556 1.924-1.556 1.074 0 2.062.468 2.062 1.658h-1.096c-.036-.62-.476-.779-1.016-.779-.36 0-.778.152-.778.583 0 .397.245.448 1.534.78.375.093 1.528.331 1.528 1.498 0 .944-.742 1.65-2.14 1.65-1.138 0-2.205-.561-2.191-1.83H9.67zm9.228-2.486h-1.542v-.951h4.215v.95H20.03v4.195h-1.132m8.213-1.99h1.332l-.648-1.887h-.015l-.669 1.887zm.107-3.155h1.161l1.923 5.145h-1.174l-.389-1.146h-1.924l-.403 1.146h-1.147l1.953-5.145zm8.848 4.265h1.21c.447 0 .837-.144.837-.677 0-.526-.333-.735-.816-.735h-1.231v1.412zm0-2.184h1.146c.396 0 .69-.179.69-.612 0-.489-.373-.591-.776-.591h-1.06v1.203zm-1.131-2.082h2.42c.982 0 1.644.318 1.644 1.276 0 .505-.252.857-.7 1.074.627.18.944.663.944 1.304 0 1.045-.886 1.492-1.815 1.492h-2.494v-5.146zm9.257 0h1.131v4.195h2.507v.952H44.19m8.458-.001h1.131v-5.146h-1.131m7.079 3.438c0 .685.533.951 1.14.951.395 0 1-.115 1-.641 0-.556-.771-.649-1.528-.85-.762-.202-1.534-.497-1.534-1.464 0-1.052.994-1.556 1.924-1.556 1.074 0 2.06.468 2.06 1.658h-1.094c-.036-.62-.476-.779-1.017-.779-.36 0-.777.152-.777.583 0 .397.244.448 1.534.78.375.093 1.528.331 1.528 1.498 0 .944-.742 1.65-2.14 1.65-1.14 0-2.205-.561-2.191-1.83h1.095zm8.09-3.438h1.131v1.976h2.082v-1.975h1.132v5.145H71.03v-2.22h-2.082v2.22h-1.132m9.525-5.145h3.849v.95h-2.717v1.104h2.493v.879h-2.493v1.26h2.774v.953h-3.906m9.984-.952h1.01c.655 0 1.282-.404 1.282-1.542 0-1.038-.36-1.701-1.484-1.701h-.808v3.243zm-1.13-4.194h2.22c1.331 0 2.334.836 2.334 2.543 0 1.492-.765 2.602-2.335 2.602h-2.22v-5.145zm18.037 5.145h-1.023v-3.271h-1.268v-.771c.713.014 1.369-.231 1.478-1.002h.813v5.044zm8.126-3.365c0-.47-.303-.937-.814-.937-.491 0-.772.468-.772.922 0 .476.245.952.772.952.547 0 .814-.44.814-.937zm-1.549 2.067c.065.339.324.627.677.627.742 0 .936-.972.965-1.535l-.014-.013c-.281.396-.648.56-1.139.56-.432 0-.872-.2-1.16-.518-.266-.31-.388-.727-.388-1.124 0-1.03.712-1.844 1.764-1.844 1.528 0 1.939 1.333 1.939 2.608 0 1.233-.548 2.638-1.982 2.638-.872 0-1.519-.512-1.635-1.4h.973zm8.225-.382c0 .47.303.937.814.937.491 0 .771-.468.771-.922 0-.476-.244-.952-.771-.952-.547 0-.814.44-.814.937zm1.55-2.068c-.066-.339-.324-.626-.678-.626-.742 0-.936.971-.966 1.535l.015.013c.281-.396.648-.562 1.139-.562.431 0 .872.202 1.16.52.266.31.388.727.388 1.124 0 1.03-.712 1.844-1.765 1.844-1.528 0-1.938-1.333-1.938-2.609 0-1.232.547-2.637 1.982-2.637.872 0 1.52.512 1.635 1.398h-.972zm7.391 3.005c.835 0 .835-1.231.835-1.801 0-.526 0-1.76-.835-1.76-.822 0-.822 1.234-.822 1.76 0 .57 0 1.8.822 1.8m0-4.401c1.008 0 1.858.633 1.858 2.6 0 2.012-.85 2.646-1.858 2.646-.995 0-1.846-.634-1.846-2.645 0-1.968.851-2.601 1.846-2.601"/></g></symbol><symbol id="shape-insta" viewBox="0 0 169.063 169.063"><path d="M122.406 0H46.654C20.929 0 0 20.93 0 46.655v75.752c0 25.726 20.929 46.655 46.654 46.655h75.752c25.727 0 46.656-20.93 46.656-46.655V46.655C169.063 20.93 148.133 0 122.406 0zm31.657 122.407c0 17.455-14.201 31.655-31.656 31.655H46.654C29.2 154.063 15 139.862 15 122.407V46.655C15 29.201 29.2 15 46.654 15h75.752c17.455 0 31.656 14.201 31.656 31.655v75.752z"/><path d="M84.531 40.97c-24.021 0-43.563 19.542-43.563 43.563 0 24.02 19.542 43.561 43.563 43.561s43.563-19.541 43.563-43.561c0-24.021-19.542-43.563-43.563-43.563zm0 72.123c-15.749 0-28.563-12.812-28.563-28.561 0-15.75 12.813-28.563 28.563-28.563s28.563 12.813 28.563 28.563c0 15.749-12.814 28.561-28.563 28.561zm45.39-84.842c-2.89 0-5.729 1.17-7.77 3.22a11.053 11.053 0 0 0-3.23 7.78c0 2.891 1.18 5.73 3.23 7.78 2.04 2.04 4.88 3.22 7.77 3.22 2.9 0 5.73-1.18 7.78-3.22 2.05-2.05 3.22-4.89 3.22-7.78 0-2.9-1.17-5.74-3.22-7.78-2.04-2.05-4.88-3.22-7.78-3.22z"/></symbol><symbol id="shape-linkedin" viewBox="0 0 56 55"><path d="M1.099 54.298H12.5V18.103H1.099m5.643-4.741c3.727 0 6.748-2.993 6.748-6.679C13.49 2.993 10.469 0 6.742 0S0 2.993 0 6.683c0 3.686 3.016 6.679 6.742 6.679m23.983 21.936c0-5.088 2.383-8.123 6.946-8.123 4.195 0 6.206 2.907 6.206 8.123v19H55.22V31.379c0-9.695-5.588-14.388-13.399-14.388-7.81 0-11.097 5.985-11.097 5.985v-4.873H19.787v36.195h10.938v-19z" fill-rule="evenodd"/></symbol><symbol id="shape-lock" viewBox="0 0 17 23"><path d="M11.567 9.224H4.862V6.417c0-1.848 1.504-3.352 3.353-3.352s3.352 1.504 3.352 3.352v2.807zM9.251 16.8v2.65c0 .234-.189.42-.42.42H7.599a.416.416 0 0 1-.418-.42v-2.65a1.787 1.787 0 0 1-.758-1.464A1.793 1.793 0 1 1 9.25 16.8zm6.516-7.577h-1.135V6.417C14.632 2.882 11.753 0 8.215 0S1.8 2.882 1.8 6.417v2.807H.665A.664.664 0 0 0 0 9.888v12.45C0 22.704.3 23 .665 23h15.102a.664.664 0 0 0 .665-.662V9.888a.664.664 0 0 0-.665-.664z" fill-rule="evenodd"/></symbol><symbol id="shape-pint" viewBox="0 0 56 71"><path d="M8.402 40.63c.932.374 1.778.015 2.051-1.011.188-.704.64-2.491.841-3.238.274-1.012.168-1.366-.59-2.25-1.653-1.915-2.71-4.402-2.71-7.919 0-10.196 7.753-19.33 20.19-19.33 11.016 0 17.069 6.628 17.069 15.473 0 11.638-5.236 21.457-13.004 21.457-4.295 0-7.504-3.489-6.476-7.776 1.235-5.11 3.622-10.632 3.622-14.32 0-3.304-1.801-6.06-5.529-6.06-4.386 0-7.912 4.463-7.912 10.448 0 3.805 1.311 6.386 1.311 6.386s-4.491 18.715-5.28 21.991c-1.565 6.529-.235 14.527-.12 15.335.068.478.693.596.976.237.403-.525 5.63-6.869 7.403-13.208.504-1.797 2.882-11.095 2.882-11.095 1.427 2.671 5.592 5.025 10.016 5.025 13.192 0 22.137-11.823 22.137-27.654C55.279 11.15 44.975 0 29.314 0 9.829 0 0 13.747 0 25.21c0 6.945 2.676 13.118 8.402 15.42" fill-rule="evenodd"/></symbol><symbol id="shape-play" viewBox="0 0 52 52"><g fill-rule="evenodd"><path d="M26 3.203c-12.572 0-22.802 10.229-22.802 22.8 0 12.57 10.23 22.8 22.802 22.8s22.802-10.23 22.802-22.8c0-12.572-10.23-22.8-22.802-22.8M26 52C11.658 52 0 40.339 0 26.002 0 11.662 11.658 0 26 0s26 11.662 26 26.002C52 40.338 40.342 52 26 52"/><path d="M37 26.5l-9 5.247L19 37V16l9 5.247"/></g></symbol><symbol id="shape-search" viewBox="0 0 40 40"><g fill-rule="evenodd"><path d="M16 3.915C9.336 3.915 3.915 9.34 3.915 16c0 6.664 5.421 12.089 12.085 12.089 6.667 0 12.085-5.425 12.085-12.089 0-6.66-5.418-12.085-12.085-12.085M16 32C7.177 32 0 24.823 0 16S7.177 0 16 0s16 7.177 16 16-7.177 16-16 16"/><path d="M37.998 40a1.998 1.998 0 0 1-1.411-.586L25.584 28.413a2 2 0 0 1 2.83-2.826l11 10.998A2 2 0 0 1 37.998 40"/></g></symbol><symbol id="shape-twitter" viewBox="0 0 62 50"><path d="M0 43.476a36.018 36.018 0 0 0 19.288 5.564c23.357 0 36.553-19.414 35.76-36.83a25.243 25.243 0 0 0 6.279-6.41 25.513 25.513 0 0 1-7.225 1.948C56.696 6.22 58.69 3.79 59.631.898a25.354 25.354 0 0 1-7.989 3.006A12.672 12.672 0 0 0 42.457 0c-8.123 0-14.09 7.455-12.255 15.203-10.463-.52-19.73-5.45-25.931-12.943-3.3 5.568-1.715 12.848 3.891 16.53a12.7 12.7 0 0 1-5.698-1.545c-.139 5.734 4.04 11.1 10.089 12.295a12.842 12.842 0 0 1-5.679.213c1.6 4.921 6.24 8.5 11.75 8.6C13.337 42.431 6.674 44.251 0 43.475" fill-rule="evenodd"/></symbol></svg>